<?xml version="1.0" encoding="utf-8"?>
<!-- Generator: Adobe Illustrator 16.0.0, SVG Export Plug-In . SVG Version: 6.00 Build 0)  -->
<!DOCTYPE svg PUBLIC "-//W3C//DTD SVG 1.1//EN" "http://www.w3.org/Graphics/SVG/1.1/DTD/svg11.dtd">
<svg version="1.1" id="Layer_1" xmlns="http://www.w3.org/2000/svg" xmlns:xlink="http://www.w3.org/1999/xlink" x="0px" y="0px"
	 width="327.699px" height="97.184px" viewBox="0 0 327.699 97.184" enable-background="new 0 0 327.699 97.184"
	 xml:space="preserve">
<g>
	<polygon fill="#242A65" points="137.153,20.895 137.153,30.684 148.581,30.684 148.581,20.895 152.968,20.895 152.968,43.813 
		148.581,43.813 148.581,34.515 137.153,34.515 137.153,43.813 132.767,43.813 132.767,20.895 	"/>
	<path fill="#242A65" d="M162.956,32.355c0,4.321,3.568,7.726,7.791,7.726c4.193,0,7.664-3.404,7.664-7.726
		c0-4.323-3.471-7.661-7.664-7.661C166.492,24.694,162.956,28.031,162.956,32.355 M182.893,32.355
		c0,6.58-5.301,11.654-12.211,11.654c-6.909,0-12.212-5.074-12.212-11.654c0-6.614,5.304-11.591,12.212-11.591
		C177.592,20.764,182.893,25.773,182.893,32.355"/>
	<path fill="#242A65" d="M195.928,24.694c-2.063,0-3.404,0.753-3.404,2.16c0,4.648,12.311,2.129,12.277,10.347
		c0,4.288-3.732,6.776-8.775,6.776c-3.666,0-7.234-1.473-9.691-3.667l1.834-3.699c2.357,2.096,5.469,3.372,7.924,3.372
		s3.93-0.918,3.93-2.521c0-4.78-12.313-2.063-12.313-10.216c0-3.993,3.438-6.546,8.578-6.546c3.045,0,6.09,0.981,8.283,2.422
		l-1.768,3.798C200.348,25.447,197.695,24.694,195.928,24.694"/>
	<path fill="#242A65" d="M224.904,28.917c0-2.816-1.867-4.191-5.141-4.191h-4.779v8.479h4.779
		C223.037,33.204,224.904,31.797,224.904,28.917 M229.061,28.784c0,5.24-3.305,8.283-9.068,8.283h-5.008v6.745h-4.387V20.895h9.395
		C225.756,20.895,229.061,23.742,229.061,28.784"/>
	<rect x="234.336" y="20.895" fill="#242A65" width="4.387" height="22.918"/>
	<polygon fill="#242A65" points="262.133,20.895 262.133,24.79 254.994,24.79 254.994,43.813 250.574,43.813 250.574,24.79 
		243.438,24.79 243.438,20.895 	"/>
	<path fill="#242A65" d="M277.914,35.202l-3.994-9.626l-4.059,9.626H277.914z M279.486,38.966h-11.197l-2.031,4.847h-4.549
		l10.049-22.918h4.553l9.92,22.918h-4.715L279.486,38.966z"/>
	<polygon fill="#242A65" points="295.039,20.895 295.039,39.852 304.926,39.852 304.926,43.813 290.652,43.813 290.652,20.895 	"/>
	<path fill="#242A65" d="M147.173,72.906c0-1.865-1.671-3.011-4.455-2.979h-5.565v6.059h5.565
		C145.502,76.018,147.173,74.872,147.173,72.906 M146.354,63.38c0-1.735-1.375-2.751-3.636-2.718h-5.565v5.566h5.565
		C144.979,66.229,146.354,65.18,146.354,63.38 M150.839,62.593c0,2.522-1.505,4.454-3.994,5.076c3.045,0.557,4.878,2.75,4.878,5.794
		c0,3.931-3.24,6.32-8.479,6.32h-10.478V56.865h10.184C147.829,56.865,150.839,59.057,150.839,62.593"/>
	<path fill="#242A65" d="M162.006,69.174h5.173c3.271,0,5.105-1.407,5.105-4.287c0-2.816-1.834-4.191-5.105-4.191h-5.173V69.174z
		 M171.959,79.782l-3.961-6.777c-0.262,0.032-0.525,0.032-0.818,0.032h-5.173v6.745h-4.388V56.865h9.562
		c5.924,0,9.297,2.849,9.297,7.89c0,3.603-1.604,6.188-4.551,7.434l5.043,7.595H171.959z"/>
	<rect x="182.93" y="56.865" fill="#242A65" width="4.387" height="22.919"/>
	<polygon fill="#242A65" points="210.727,56.865 210.727,60.761 203.588,60.761 203.588,79.783 199.17,79.783 199.17,60.761 
		192.031,60.761 192.031,56.865 	"/>
	<path fill="#242A65" d="M223.824,54.54h-3.602l3.469-5.042l4.193,1.669L223.824,54.54z M226.51,71.172l-3.996-9.626l-4.059,9.626
		H226.51z M228.08,74.937h-11.197l-2.031,4.846h-4.549l10.051-22.919h4.551l9.92,22.919h-4.713L228.08,74.937z"/>
	<polygon fill="#242A65" points="243.404,56.865 255.225,72.547 255.225,56.865 259.479,56.865 259.479,79.783 255.322,79.783 
		243.535,64.134 243.535,79.783 239.246,79.783 239.246,56.865 	"/>
	<rect x="266.754" y="56.865" fill="#242A65" width="4.387" height="22.919"/>
	<path fill="#242A65" d="M288.787,60.63c-4.322,0-7.695,3.338-7.695,7.596c0,4.289,3.373,7.627,7.695,7.627
		c2.193,0,4.516-1.014,6.221-2.684l2.584,2.881c-2.355,2.39-5.729,3.929-9.035,3.929c-6.744,0-11.951-5.075-11.951-11.688
		c0-6.549,5.271-11.558,12.115-11.558c3.273,0,6.611,1.407,8.838,3.667l-2.551,3.208C293.369,61.774,291.045,60.63,288.787,60.63"/>
	<path fill="#242A65" d="M312.854,76.05c-4.223,0-7.793-3.404-7.793-7.727s3.537-7.661,7.793-7.661c4.191,0,7.662,3.339,7.662,7.661
		S317.045,76.05,312.854,76.05 M312.787,56.734c-6.908,0-12.211,4.976-12.211,11.59c0,6.58,5.303,11.655,12.211,11.655
		c6.91,0,12.213-5.075,12.213-11.655C325,61.742,319.697,56.734,312.787,56.734"/>
	<path fill="#242A65" d="M28.905,66.909l-5.976,7.528c-1.157-0.862-2.595-1.372-4.148-1.372c-2.086,0-3.958,0.917-5.232,2.37
		c-1.014,1.155-1.652,2.648-1.721,4.29h17.113l10.081-7.245c-1.494-0.405-2.038-0.987-3.4-1.734L28.905,66.909z"/>
	<polygon fill="#242A65" points="6.482,46.195 11.977,46.195 11.978,39.93 18.243,39.931 18.243,34.435 11.979,34.435 
		11.979,28.169 6.484,28.169 6.483,34.435 0.219,34.434 0.219,39.928 6.482,39.929 	"/>
	<path fill="#242A65" d="M112.411,41.352c-0.052,1.244-0.319,2.476-0.791,3.627c-0.458,1.112-1.109,2.134-1.88,3.054
		c-0.372,0.444-0.733,0.891-1.137,1.307c-0.392,0.406-0.806,0.787-1.241,1.149c-0.893,0.742-1.863,1.389-2.884,1.938
		c-1.953,1.052-4.091,1.756-6.279,2.115c0.205,1.163,0.723,3.261,1.993,5.56c1.397,2.524,2.888,4.095,4.771,5.601
		c1.123,0.896,2.39,1.595,3.759,2.266l-1.029,1.54l-5.338,8.46l-0.117,0.186l-1.063,1.572H88.21c0.161-3.88,3.329-6.975,7.216-6.975
		c0.745,0,1.463,0.113,2.138,0.323l0.017-2.705c0,0-2.223-0.1-3.949-0.37c-1.539-0.243-3.989-1.142-3.989-1.142l-15.43,10.868
		H57.604c0.054-1.327,0.463-2.563,1.131-3.615c0-0.002,0.002-0.005,0.005-0.006c1.283-2.017,3.526-3.354,6.081-3.354
		c1.773,0,3.397,0.646,4.654,1.715l5.499-8.1c0.59-0.795,0.734-1.118,0.734-1.118s-0.543-0.352-0.734-0.455
		c-5.42-2.9-14.409,0.736-20.849,3.965c-5.422,2.719-11.814,2.618-17.122-0.316L13.039,54.973c-1.313,1.801-3.428,2.966-5.816,2.966
		c-2.34,0-4.419-1.121-5.741-2.864C0.553,53.849,0,52.316,0,50.653v-0.009l20.437,0.004l11.256,2.727
		c2.386-3.233,3.017-3.56,3.722-4.88c0.262-0.492,0.511-1.037,0.475-1.669c-0.079-1.375-1.12-2.425-2.309-2.337l-9.431,0.016
		l-0.09-1.207c-0.046-0.637,0.128-1.262,0.487-1.74l1.578-2.116c0.619,0.513,1.406,0.815,2.264,0.815
		c2.228,0,3.979-2.052,3.496-4.383c-0.292-1.415-1.461-2.537-2.875-2.777c-2.014-0.342-3.785,1.018-4.133,2.883l-2.179-2.165
		c-0.421-0.42-0.688-1.013-0.734-1.648l-0.09-1.228l-0.155-2.204c0.007-0.659,0.523-0.635,1.095-0.679l3.661-0.274
		c1.013-0.075,1.764-1.081,1.679-2.247l4.758-0.356c2.546-2.994,5.815-4.902,9.484-5.177l0.162,2.201
		c5.188-1.491,10.525-0.426,14.464,3.486l-1.237,1.656c4.659,3.183,7.847,8.263,8.282,14.183l-2.955,0.22
		c2.167,1.994,3.114,4.339,3.222,5.835l32.293,0.009c2.227-0.083,4.467-0.683,6.35-1.866c0.973-0.611,1.889-1.382,2.5-2.364
		c0.712-1.142,0.853-2.534,0.466-3.815c-0.354-1.177-1.128-2.235-2.175-2.888c-1.053-0.655-2.421-0.871-3.607-0.475
		c-1.101,0.366-2.012,1.212-2.869,1.961c-0.778,0.682-1.552,1.365-2.358,2.014c-2.152,1.724-4.531,3.161-7.164,4.01
		c-2.673,0.861-5.657,0.987-8.379,0.283c-1.287-0.332-2.536-0.862-3.618-1.643c-1.028-0.741-1.874-1.715-2.49-2.821
		c-1.295-2.32-1.576-5.263-0.421-7.695c0.562-1.185,1.462-2.195,2.599-2.852c0.074-0.042,0.148-0.082,0.224-0.122
		c0.281-2.322,2.26-4.121,4.659-4.121h9.815l-6.051,7.498c-0.063,0.085-0.132,0.17-0.202,0.25l-0.019,0.023l-0.001-0.001
		c-0.861,0.989-2.126,1.616-3.542,1.616c-0.971,0-1.873-0.295-2.621-0.8c-0.561,0.694-0.475,1.824-0.173,2.615
		c0.208,0.543,0.547,1.049,0.986,1.432c0.41,0.355,0.901,0.592,1.413,0.761c1.14,0.374,2.409,0.416,3.593,0.297
		c1.251-0.126,2.429-0.505,3.555-1.056c1.948-0.956,3.663-2.339,5.266-3.787c0.87-0.782,1.73-1.575,2.681-2.261
		c0.967-0.698,2.02-1.277,3.154-1.653c2.36-0.777,4.994-0.644,7.285,0.299c2.076,0.854,3.847,2.357,5.069,4.234
		C111.833,36.635,112.509,38.997,112.411,41.352"/>
</g>
</svg>
